<svg width="576" height="512" xmlns="http://www.w3.org/2000/svg" class="svg-inline--fa fa-exclamation-triangle fa-w-18">
 <g>
  <title>background</title>
  <rect x="-1" y="-1" width="578" height="514" id="canvas_background" fill="none"/>
 </g>

 <g>
  <title>Layer 1</title>
  <path fill="#BBBBBB" d="m569.517,440.013c18.458,31.994 -4.711,71.987 -41.577,71.987l-479.886,0c-36.937,0 -59.999,-40.055 -41.577,-71.987l239.946,-416.028c18.467,-32.009 64.72,-31.951 83.154,0l239.94,416.028zm-281.517,-86.013c-25.405,0 -46,20.595 -46,46s20.595,46 46,46s46,-20.595 46,-46s-20.595,-46 -46,-46zm-43.673,-165.346l7.418,136c0.347,6.364 5.609,11.346 11.982,11.346l48.546,0c6.373,0 11.635,-4.982 11.982,-11.346l7.418,-136c0.375,-6.874 -5.098,-12.654 -11.982,-12.654l-63.383,0c-6.884,0 -12.356,5.78 -11.981,12.654z" id="svg_1"/>
 </g>
</svg>