<svg width="576" height="512" xmlns="http://www.w3.org/2000/svg" class="svg-inline--fa fa-water fa-w-18">
 <g>
  <title>background</title>
  <rect x="-1" y="-1" width="578" height="514" id="canvas_background" fill="none"/>
 </g>

 <g>
  <title>Layer 1</title>
  <path fill="#BBBBBB" d="m562.1,383.9c-21.5,-2.4 -42.1,-10.5 -57.9,-22.9c-14.1,-11.1 -34.2,-11.3 -48.2,0c-37.9,30.4 -107.2,30.4 -145.7,-1.5c-13.5,-11.2 -33,-9.1 -46.7,1.8c-38,30.1 -106.9,30 -145.2,-1.7c-13.5,-11.2 -33.3,-8.9 -47.1,2c-15.5,12.2 -36,20.1 -57.7,22.4c-7.9,0.8 -13.6,7.8 -13.6,15.7l0,32.2c0,9.1 7.6,16.8 16.7,16c28.8,-2.5 56.1,-11.4 79.4,-25.9c56.5,34.6 137,34.1 192,0c56.5,34.6 137,34.1 192,0c23.3,14.2 50.9,23.3 79.1,25.8c9.1,0.8 16.7,-6.9 16.7,-16l0,-31.6c0.1,-8 -5.7,-15.4 -13.8,-16.3zm0,-144c-21.5,-2.4 -42.1,-10.5 -57.9,-22.9c-14.1,-11.1 -34.2,-11.3 -48.2,0c-37.9,30.4 -107.2,30.4 -145.7,-1.5c-13.5,-11.2 -33,-9.1 -46.7,1.8c-38,30.1 -106.9,30 -145.2,-1.7c-13.5,-11.2 -33.3,-8.9 -47.1,2c-15.5,12.2 -36,20.1 -57.7,22.4c-7.9,0.8 -13.6,7.8 -13.6,15.7l0,32.2c0,9.1 7.6,16.8 16.7,16c28.8,-2.5 56.1,-11.4 79.4,-25.9c56.5,34.6 137,34.1 192,0c56.5,34.6 137,34.1 192,0c23.3,14.2 50.9,23.3 79.1,25.8c9.1,0.8 16.7,-6.9 16.7,-16l0,-31.6c0.1,-8 -5.7,-15.4 -13.8,-16.3zm0,-144c-21.5,-2.5 -42.1,-10.5 -57.9,-22.9c-14.1,-11.1 -34.2,-11.3 -48.2,0c-37.9,30.4 -107.2,30.4 -145.7,-1.5c-13.5,-11.2 -33,-9.1 -46.7,1.8c-38,30.1 -106.9,30 -145.2,-1.7c-13.5,-11.2 -33.3,-8.9 -47.1,2c-15.5,12.2 -36,20.1 -57.7,22.4c-7.9,0.8 -13.6,7.8 -13.6,15.7l0,32.2c0,9.1 7.6,16.8 16.7,16c28.8,-2.5 56.1,-11.4 79.4,-25.9c56.5,34.6 137,34.1 192,0c56.5,34.6 137,34.1 192,0c23.3,14.2 50.9,23.3 79.1,25.8c9.1,0.8 16.7,-6.9 16.7,-16l0,-31.6c0.1,-8 -5.7,-15.4 -13.8,-16.3z" id="svg_1"/>
 </g>
</svg>