<svg width="512" height="512" xmlns="http://www.w3.org/2000/svg" class="svg-inline--fa fa-check-circle fa-w-16">
 <g>
  <title>background</title>
  <rect x="-1" y="-1" width="514" height="514" id="canvas_background" fill="none"/>
 </g>

 <g>
  <title>Layer 1</title>
  <path fill="#BBBBBB" d="m504,256c0,136.967 -111.033,248 -248,248s-248,-111.033 -248,-248s111.033,-248 248,-248s248,111.033 248,248zm-276.686,131.314l184,-184c6.248,-6.248 6.248,-16.379 0,-22.627l-22.627,-22.627c-6.248,-6.249 -16.379,-6.249 -22.628,0l-150.059,150.058l-70.059,-70.059c-6.248,-6.248 -16.379,-6.248 -22.628,0l-22.627,22.627c-6.248,6.248 -6.248,16.379 0,22.627l104,104c6.249,6.249 16.379,6.249 22.628,0.001z" id="svg_1"/>
 </g>
</svg>